<?xml version="1.0" encoding="UTF-8" standalone="no"?>
<svg
   version="1.1"
   width="15"
   height="45"
   id="svg4"
   sodipodi:docname="2.svg"
   inkscape:version="1.3 (0e150ed6c4, 2023-07-21)"
   xmlns:inkscape="http://www.inkscape.org/namespaces/inkscape"
   xmlns:sodipodi="http://sodipodi.sourceforge.net/DTD/sodipodi-0.dtd"
   xmlns="http://www.w3.org/2000/svg"
   xmlns:svg="http://www.w3.org/2000/svg">
  <defs
     id="defs4" />
  <sodipodi:namedview
     id="namedview4"
     pagecolor="#ffffff"
     bordercolor="#000000"
     borderopacity="0.25"
     inkscape:showpageshadow="2"
     inkscape:pageopacity="0.0"
     inkscape:pagecheckerboard="0"
     inkscape:deskcolor="#d1d1d1"
     inkscape:zoom="12.775063"
     inkscape:cx="14.872725"
     inkscape:cy="16.790524"
     inkscape:window-width="939"
     inkscape:window-height="1022"
     inkscape:window-x="965"
     inkscape:window-y="10"
     inkscape:window-maximized="1"
     inkscape:current-layer="svg4" />
  <path
     d="M 11.732268,28.965458 H 3.2795036 v -1.307313 l 3.3488707,-3.384688 q 0.9670536,-0.967053 1.6296644,-1.719206 0.6626108,-0.752153 1.0028704,-1.468489 0.3402595,-0.734244 0.3402595,-1.593847 0,-1.056596 -0.6267939,-1.593848 -0.626794,-0.55516 -1.6296644,-0.55516 -0.9312368,0 -1.6475728,0.322351 -0.6984275,0.322351 -1.4326719,0.89542 L 3.4227708,17.504082 q 0.7521528,-0.626794 1.7192064,-1.056595 0.9849619,-0.44771 2.2027331,-0.44771 1.79084,0 2.8295267,0.913328 1.038688,0.89542 1.038688,2.489268 0,1.00287 -0.411894,1.880381 -0.411893,0.877512 -1.1461372,1.737115 -0.7342443,0.841695 -1.7192063,1.808749 L 5.267336,27.461152 v 0.07163 h 6.464932 z"
     id="text4"
     style="font-size:17.9084px;stroke-width:1.49236"
     transform="scale(0.99923658,1.000764)"
     aria-label="2" />
</svg>
