<?xml version="1.0" encoding="UTF-8" standalone="no"?>
<svg
   version="1.1"
   width="15"
   height="45"
   id="svg4"
   sodipodi:docname="3.svg"
   inkscape:version="1.3 (0e150ed6c4, 2023-07-21)"
   xmlns:inkscape="http://www.inkscape.org/namespaces/inkscape"
   xmlns:sodipodi="http://sodipodi.sourceforge.net/DTD/sodipodi-0.dtd"
   xmlns="http://www.w3.org/2000/svg"
   xmlns:svg="http://www.w3.org/2000/svg">
  <defs
     id="defs4" />
  <sodipodi:namedview
     id="namedview4"
     pagecolor="#ffffff"
     bordercolor="#000000"
     borderopacity="0.25"
     inkscape:showpageshadow="2"
     inkscape:pageopacity="0.0"
     inkscape:pagecheckerboard="0"
     inkscape:deskcolor="#d1d1d1"
     inkscape:zoom="12.775063"
     inkscape:cx="14.872725"
     inkscape:cy="16.790524"
     inkscape:window-width="939"
     inkscape:window-height="1022"
     inkscape:window-x="965"
     inkscape:window-y="10"
     inkscape:window-maximized="1"
     inkscape:current-layer="svg4" />
  <path
     d="m 11.31998,19.080132 q 0,1.289404 -0.716336,2.059466 -0.716336,0.752152 -1.9341072,1.00287 v 0.07163 q 1.5401222,0.179084 2.2922752,0.967053 0.752153,0.78797 0.752153,2.059466 0,1.110321 -0.519344,1.987832 -0.519343,0.859604 -1.6117558,1.34313 -1.074504,0.483527 -2.775802,0.483527 -1.0028703,0 -1.8624735,-0.161175 -0.8596032,-0.143268 -1.6475728,-0.537252 v -1.468489 q 0.805878,0.393985 1.7371148,0.626794 0.9312368,0.214901 1.7908399,0.214901 1.7192064,0 2.4713592,-0.662611 0.7700612,-0.680519 0.7700612,-1.862474 0,-1.199863 -0.9491452,-1.719206 Q 8.18601,22.948346 6.484712,22.948346 H 5.2490325 v -1.34313 h 1.2535879 q 1.5759392,0 2.3818172,-0.662611 0.8237864,-0.662611 0.8237864,-1.755023 0,-0.931237 -0.626794,-1.432672 -0.626794,-0.519344 -1.701298,-0.519344 -1.0386872,0 -1.7729315,0.304443 -0.7342444,0.304443 -1.4505804,0.770061 L 3.3686505,17.235566 q 0.6805192,-0.537252 1.6833896,-0.931236 1.0207788,-0.393985 2.3101835,-0.393985 2.0057408,0 2.9727944,0.89542 0.984962,0.89542 0.984962,2.274367 z"
     id="text4"
     style="font-size:17.9084px;stroke-width:1.49236"
     transform="scale(0.99923658,1.000764)"
     aria-label="3" />
</svg>
