<?xml version="1.0" encoding="UTF-8" standalone="no"?>
<svg
   version="1.1"
   width="15"
   height="45"
   id="svg4"
   sodipodi:docname="6.svg"
   inkscape:version="1.3 (0e150ed6c4, 2023-07-21)"
   xmlns:inkscape="http://www.inkscape.org/namespaces/inkscape"
   xmlns:sodipodi="http://sodipodi.sourceforge.net/DTD/sodipodi-0.dtd"
   xmlns="http://www.w3.org/2000/svg"
   xmlns:svg="http://www.w3.org/2000/svg">
  <defs
     id="defs4" />
  <sodipodi:namedview
     id="namedview4"
     pagecolor="#ffffff"
     bordercolor="#000000"
     borderopacity="0.25"
     inkscape:showpageshadow="2"
     inkscape:pageopacity="0.0"
     inkscape:pagecheckerboard="0"
     inkscape:deskcolor="#d1d1d1"
     inkscape:zoom="12.775063"
     inkscape:cx="14.872725"
     inkscape:cy="21.643729"
     inkscape:window-width="939"
     inkscape:window-height="1022"
     inkscape:window-x="965"
     inkscape:window-y="10"
     inkscape:window-maximized="1"
     inkscape:current-layer="svg4" />
  <path
     d="m 3.2970171,23.413964 q 0,-1.378946 0.2328092,-2.704168 0.2507176,-1.34313 0.8775116,-2.417634 0.6447023,-1.092412 1.7908399,-1.737115 1.1461376,-0.644702 2.954886,-0.644702 0.3760763,0 0.8237863,0.03582 0.4656189,0.03582 0.7521529,0.125358 v 1.34313 Q 10.406652,17.3072 9.9947585,17.253475 9.6007737,17.19975 9.1888806,17.19975 q -1.2356796,0 -2.059466,0.411893 -0.8237864,0.411893 -1.3073132,1.128229 -0.4656184,0.716336 -0.6805192,1.647573 -0.2149008,0.931237 -0.2686259,1.987832 h 0.1074503 q 0.4118932,-0.626794 1.1461376,-1.056595 0.7342444,-0.44771 1.880382,-0.44771 1.6654811,0 2.6862598,1.020778 1.020779,1.002871 1.020779,2.865344 0,2.005741 -1.110321,3.151879 -1.0924123,1.146137 -2.9548858,1.146137 -1.2177712,0 -2.2027332,-0.608885 Q 4.4610631,27.837339 3.8700859,26.583751 3.2970171,25.330163 3.2970171,23.413964 Z m 4.3338327,4.315925 q 1.1282292,0 1.8266567,-0.716336 0.6984275,-0.734245 0.6984275,-2.256459 0,-1.217771 -0.6267939,-1.934107 -0.6088855,-0.716336 -1.8445651,-0.716336 -0.8416948,0 -1.4684888,0.358168 -0.626794,0.34026 -0.984962,0.877512 -0.3402595,0.537252 -0.3402595,1.11032 0,0.770062 0.3044427,1.540123 0.3044428,0.752153 0.9133284,1.253588 0.6088856,0.483527 1.522214,0.483527 z"
     id="text4"
     style="font-size:17.9084px;stroke-width:1.49236"
     transform="scale(0.99923658,1.000764)"
     aria-label="6" />
</svg>
