<?xml version="1.0" encoding="UTF-8" standalone="no"?>
<svg
   version="1.1"
   width="15"
   height="45"
   id="svg4"
   sodipodi:docname="8.svg"
   inkscape:version="1.3 (0e150ed6c4, 2023-07-21)"
   xmlns:inkscape="http://www.inkscape.org/namespaces/inkscape"
   xmlns:sodipodi="http://sodipodi.sourceforge.net/DTD/sodipodi-0.dtd"
   xmlns="http://www.w3.org/2000/svg"
   xmlns:svg="http://www.w3.org/2000/svg">
  <defs
     id="defs4" />
  <sodipodi:namedview
     id="namedview4"
     pagecolor="#ffffff"
     bordercolor="#000000"
     borderopacity="0.25"
     inkscape:showpageshadow="2"
     inkscape:pageopacity="0.0"
     inkscape:pagecheckerboard="0"
     inkscape:deskcolor="#d1d1d1"
     inkscape:zoom="12.775063"
     inkscape:cx="14.833586"
     inkscape:cy="21.800284"
     inkscape:window-width="1920"
     inkscape:window-height="1048"
     inkscape:window-x="0"
     inkscape:window-y="0"
     inkscape:window-maximized="1"
     inkscape:current-layer="svg4" />
  <path
     d="m 7.496879,15.910345 q 1.6833895,0 2.757894,0.787969 1.074503,0.78797 1.074503,2.274367 0,0.770061 -0.340259,1.34313 -0.322351,0.573069 -0.877512,1.020779 -0.5551601,0.429802 -1.2177708,0.770061 0.7879695,0.376077 1.4326718,0.859603 0.644703,0.465619 1.020779,1.092413 0.393985,0.626794 0.393985,1.504305 0,1.611756 -1.146138,2.560901 -1.1282291,0.931237 -3.0444278,0.931237 -2.059466,0 -3.1697867,-0.89542 -1.1103208,-0.913328 -1.1103208,-2.542993 0,-0.877511 0.358168,-1.522214 0.3760764,-0.644702 0.984962,-1.11032 0.6088855,-0.465619 1.3073131,-0.78797 Q 4.989703,21.658941 4.3270923,20.906788 3.6823899,20.136727 3.6823899,18.954773 q 0,-0.984962 0.5014352,-1.647573 0.5014352,-0.680519 1.3610383,-1.038687 0.8596032,-0.358168 1.9520156,-0.358168 z m -0.017908,1.271496 q -0.984962,0 -1.6296644,0.483527 -0.626794,0.465618 -0.626794,1.361038 0,0.662611 0.3044428,1.110321 0.3223512,0.44771 0.8596032,0.770061 0.537252,0.304443 1.1819544,0.590978 0.9312368,-0.393985 1.5580307,-0.949146 0.6447024,-0.55516 0.6447024,-1.522214 0,-0.89542 -0.626794,-1.361038 Q 8.5176578,17.181841 7.4789706,17.181841 Z M 4.810619,25.634606 q 0,0.931237 0.6626108,1.558031 0.6626108,0.608885 2.0415576,0.608885 1.3073132,0 1.9878323,-0.608885 0.6984273,-0.626794 0.6984273,-1.611756 0,-0.931237 -0.7342441,-1.540123 Q 8.7325586,23.413964 7.5147874,22.948346 L 7.228253,22.840895 Q 6.0462986,23.342331 5.4195046,24.004941 4.810619,24.649644 4.810619,25.634606 Z"
     id="text4"
     style="font-size:17.9084px;stroke-width:1.49236"
     transform="scale(0.99923658,1.000764)"
     aria-label="8" />
</svg>
