<?xml version="1.0" encoding="UTF-8" standalone="no"?>
<svg
   version="1.1"
   width="45"
   height="15"
   id="svg4"
   sodipodi:docname="a.svg"
   inkscape:version="1.3 (0e150ed6c4, 2023-07-21)"
   xmlns:inkscape="http://www.inkscape.org/namespaces/inkscape"
   xmlns:sodipodi="http://sodipodi.sourceforge.net/DTD/sodipodi-0.dtd"
   xmlns="http://www.w3.org/2000/svg"
   xmlns:svg="http://www.w3.org/2000/svg">
  <defs
     id="defs4" />
  <sodipodi:namedview
     id="namedview4"
     pagecolor="#ffffff"
     bordercolor="#000000"
     borderopacity="0.25"
     inkscape:showpageshadow="2"
     inkscape:pageopacity="0.0"
     inkscape:pagecheckerboard="0"
     inkscape:deskcolor="#d1d1d1"
     inkscape:zoom="9.0333335"
     inkscape:cx="24.188191"
     inkscape:cy="-2.9335793"
     inkscape:window-width="1920"
     inkscape:window-height="1048"
     inkscape:window-x="0"
     inkscape:window-y="0"
     inkscape:window-maximized="1"
     inkscape:current-layer="svg4" />
  <path
     d="m 22.965057,2.5245711 q 1.755023,0 2.596718,0.7700612 0.841695,0.7700612 0.841695,2.4534507 v 6.536566 h -1.146138 l -0.304443,-1.361038 h -0.07163 q -0.626794,0.787969 -1.325222,1.164045 -0.680519,0.376077 -1.89829,0.376077 -1.307313,0 -2.166917,-0.680519 -0.859603,-0.698428 -0.859603,-2.1669166 0,-1.432672 1.128229,-2.2027332 1.12823,-0.7879696 3.47423,-0.8596032 l 1.629664,-0.053725 V 5.927167 q 0,-1.1998627 -0.519343,-1.6654811 -0.519344,-0.4656184 -1.468489,-0.4656184 -0.752153,0 -1.432672,0.2328092 -0.680519,0.2149008 -1.271496,0.5014352 L 19.68782,3.3483575 q 0.626794,-0.3402596 1.486397,-0.5730688 0.859603,-0.2507176 1.79084,-0.2507176 z m 0.465618,5.1218023 q -1.79084,0.071634 -2.489267,0.5730688 -0.680519,0.5014352 -0.680519,1.4147636 0,0.8058782 0.483526,1.1819542 0.501436,0.376077 1.271497,0.376077 1.217771,0 2.023649,-0.662611 0.805878,-0.6805194 0.805878,-2.0773746 V 7.5926482 Z"
     id="text4"
     style="font-size:17.9084px;stroke-width:1.49236"
     transform="scale(0.99923658,1.000764)"
     aria-label="a" />
</svg>
