<?xml version="1.0" encoding="UTF-8" standalone="no"?>
<svg
   version="1.1"
   width="45"
   height="15"
   id="svg4"
   sodipodi:docname="b.svg"
   inkscape:version="1.3 (0e150ed6c4, 2023-07-21)"
   xmlns:inkscape="http://www.inkscape.org/namespaces/inkscape"
   xmlns:sodipodi="http://sodipodi.sourceforge.net/DTD/sodipodi-0.dtd"
   xmlns="http://www.w3.org/2000/svg"
   xmlns:svg="http://www.w3.org/2000/svg">
  <defs
     id="defs4" />
  <sodipodi:namedview
     id="namedview4"
     pagecolor="#ffffff"
     bordercolor="#000000"
     borderopacity="0.25"
     inkscape:showpageshadow="2"
     inkscape:pageopacity="0.0"
     inkscape:pagecheckerboard="0"
     inkscape:deskcolor="#d1d1d1"
     inkscape:zoom="18.066667"
     inkscape:cx="23.911439"
     inkscape:cy="7.4446493"
     inkscape:window-width="939"
     inkscape:window-height="1022"
     inkscape:window-x="965"
     inkscape:window-y="10"
     inkscape:window-maximized="1"
     inkscape:current-layer="svg4" />
  <path
     d="m 19.839883,3.9125959 q 0,0.6088856 -0.03582,1.1461376 -0.01791,0.5193436 -0.05373,0.8237863 h 0.08954 q 0.411893,-0.6088855 1.128229,-1.0207787 0.716336,-0.4118932 1.844565,-0.4118932 1.79084,0 2.865344,1.253588 1.092413,1.2356795 1.092413,3.7070387 0,2.4713594 -1.092413,3.7249474 -1.092412,1.253588 -2.865344,1.253588 -1.128229,0 -1.844565,-0.411894 -0.716336,-0.411893 -1.128229,-0.984962 h -0.125359 l -0.322351,1.217772 H 18.263944 V 0.59954197 h 1.575939 z m 2.704168,1.8445651 q -1.522214,0 -2.113191,0.8775116 -0.590977,0.8775116 -0.590977,2.7220768 v 0.071634 q 0,1.772932 0.573069,2.722077 0.590977,0.931236 2.166916,0.931236 1.289405,0 1.916199,-0.949145 0.644702,-0.949145 0.644702,-2.7399848 0,-3.6354052 -2.596718,-3.6354052 z"
     id="text4"
     style="font-size:17.9084px;stroke-width:1.49236"
     transform="scale(0.99923658,1.000764)"
     aria-label="b" />
</svg>
