<?xml version="1.0" encoding="UTF-8" standalone="no"?>
<svg
   version="1.1"
   width="45"
   height="15"
   id="svg4"
   sodipodi:docname="d.svg"
   inkscape:version="1.3 (0e150ed6c4, 2023-07-21)"
   xmlns:inkscape="http://www.inkscape.org/namespaces/inkscape"
   xmlns:sodipodi="http://sodipodi.sourceforge.net/DTD/sodipodi-0.dtd"
   xmlns="http://www.w3.org/2000/svg"
   xmlns:svg="http://www.w3.org/2000/svg">
  <defs
     id="defs4" />
  <sodipodi:namedview
     id="namedview4"
     pagecolor="#ffffff"
     bordercolor="#000000"
     borderopacity="0.25"
     inkscape:showpageshadow="2"
     inkscape:pageopacity="0.0"
     inkscape:pagecheckerboard="0"
     inkscape:deskcolor="#d1d1d1"
     inkscape:zoom="18.066667"
     inkscape:cx="23.883763"
     inkscape:cy="7.4446493"
     inkscape:window-width="1920"
     inkscape:window-height="1048"
     inkscape:window-x="0"
     inkscape:window-y="0"
     inkscape:window-maximized="1"
     inkscape:current-layer="svg4" />
  <path
     d="m 22.20379,14.38901 q -1.79084,0 -2.865344,-1.23568 -1.074504,-1.253588 -1.074504,-3.724947 0,-2.4713592 1.074504,-3.7249471 1.092413,-1.2714964 2.883253,-1.2714964 1.11032,0 1.808748,0.4118932 0.716336,0.4118932 1.164046,1.0028703 h 0.10745 Q 25.284035,5.6138939 25.23031,5.1661839 25.194493,4.7005655 25.194493,4.4319395 V 0.59954197 h 1.575939 V 14.209926 h -1.271496 l -0.23281,-1.289405 h -0.07163 q -0.429802,0.608885 -1.146138,1.038687 -0.716336,0.429802 -1.844565,0.429802 z m 0.250718,-1.307314 q 1.522214,0 2.131099,-0.823786 0.626794,-0.841695 0.626794,-2.5250842 V 9.4462914 q 0,-1.79084 -0.590977,-2.7399852 -0.590977,-0.9670536 -2.184825,-0.9670536 -1.271496,0 -1.916198,1.0207788 -0.626794,1.0028704 -0.626794,2.7041684 0,1.7192062 0.626794,2.6683512 0.644702,0.949145 1.934107,0.949145 z"
     id="text4"
     style="font-size:17.9084px;stroke-width:1.49236"
     transform="scale(0.99923658,1.000764)"
     aria-label="d" />
</svg>
