<?xml version="1.0" encoding="UTF-8" standalone="no"?>
<svg
   version="1.1"
   width="45"
   height="15"
   id="svg4"
   sodipodi:docname="e.svg"
   inkscape:version="1.3 (0e150ed6c4, 2023-07-21)"
   xmlns:inkscape="http://www.inkscape.org/namespaces/inkscape"
   xmlns:sodipodi="http://sodipodi.sourceforge.net/DTD/sodipodi-0.dtd"
   xmlns="http://www.w3.org/2000/svg"
   xmlns:svg="http://www.w3.org/2000/svg">
  <defs
     id="defs4" />
  <sodipodi:namedview
     id="namedview4"
     pagecolor="#ffffff"
     bordercolor="#000000"
     borderopacity="0.25"
     inkscape:showpageshadow="2"
     inkscape:pageopacity="0.0"
     inkscape:pagecheckerboard="0"
     inkscape:deskcolor="#d1d1d1"
     inkscape:zoom="18.066667"
     inkscape:cx="23.911439"
     inkscape:cy="7.4446493"
     inkscape:window-width="939"
     inkscape:window-height="1022"
     inkscape:window-x="965"
     inkscape:window-y="10"
     inkscape:window-maximized="1"
     inkscape:current-layer="svg4" />
  <path
     d="m 22.66035,2.5155777 q 1.235679,0 2.113191,0.537252 0.89542,0.5372519 1.361038,1.5222139 0.483527,0.9670536 0.483527,2.2743668 v 0.9491451 h -6.572383 q 0.03582,1.6296644 0.823787,2.4892675 0.805878,0.841695 2.23855,0.841695 0.913328,0 1.611756,-0.161176 0.716336,-0.179084 1.468488,-0.501435 v 1.378947 q -0.734244,0.322351 -1.45058,0.465618 -0.716336,0.161176 -1.701298,0.161176 -1.361038,0 -2.417634,-0.555161 -1.038687,-0.55516 -1.629664,-1.647572 -0.573069,-1.1103211 -0.573069,-2.7041686 0,-1.5759392 0.519344,-2.7041684 0.537252,-1.1282292 1.486397,-1.7371147 0.967053,-0.6088856 2.23855,-0.6088856 z m -0.01791,1.2894047 q -1.128229,0 -1.79084,0.7342444 -0.644702,0.716336 -0.770061,2.0057408 h 4.888993 Q 24.952625,5.3271964 24.397464,4.5750436 23.842304,3.8049824 22.642441,3.8049824 Z"
     id="text4"
     style="font-size:17.9084px;stroke-width:1.49236"
     transform="scale(0.99923658,1.000764)"
     aria-label="e" />
</svg>
