<?xml version="1.0" encoding="UTF-8" standalone="no"?>
<svg
   version="1.1"
   width="45"
   height="15"
   id="svg4"
   sodipodi:docname="g.svg"
   inkscape:version="1.3 (0e150ed6c4, 2023-07-21)"
   xmlns:inkscape="http://www.inkscape.org/namespaces/inkscape"
   xmlns:sodipodi="http://sodipodi.sourceforge.net/DTD/sodipodi-0.dtd"
   xmlns="http://www.w3.org/2000/svg"
   xmlns:svg="http://www.w3.org/2000/svg">
  <defs
     id="defs4" />
  <sodipodi:namedview
     id="namedview4"
     pagecolor="#ffffff"
     bordercolor="#000000"
     borderopacity="0.25"
     inkscape:showpageshadow="2"
     inkscape:pageopacity="0.0"
     inkscape:pagecheckerboard="0"
     inkscape:deskcolor="#d1d1d1"
     inkscape:zoom="18.066667"
     inkscape:cx="23.911439"
     inkscape:cy="7.4446493"
     inkscape:window-width="939"
     inkscape:window-height="1022"
     inkscape:window-x="965"
     inkscape:window-y="10"
     inkscape:window-maximized="1"
     inkscape:current-layer="svg4" />
  <path
     d="m 22.20379,0.45615136 q 0.949145,0 1.701298,0.358168 0.770061,0.35816794 1.307313,1.09241234 h 0.08954 l 0.214901,-1.27149634 h 1.253588 V 10.395313 q 0,2.059466 -1.056596,3.098153 -1.038687,1.038687 -3.24142,1.038687 -2.113191,0 -3.456321,-0.608885 v -1.450581 q 1.414764,0.752153 3.545863,0.752153 1.23568,0 1.934107,-0.734244 0.716336,-0.716336 0.716336,-1.969924 v -0.376076 q 0,-0.2149013 0.01791,-0.608886 0.01791,-0.4118932 0.03582,-0.5730688 h -0.07163 q -0.967054,1.4505808 -2.972794,1.4505808 -1.862474,0 -2.91907,-1.3073136 -1.038687,-1.3073132 -1.038687,-3.6533136 0,-2.2922751 1.038687,-3.6354051 1.056596,-1.36103834 2.901161,-1.36103834 z m 0.214901,1.32522154 q -1.199863,0 -1.862474,0.9670536 -0.66261,0.9491452 -0.66261,2.7220767 0,1.7729316 0.644702,2.7220768 0.662611,0.9312368 1.916199,0.9312368 1.45058,0 2.113191,-0.7700612 Q 25.23031,7.565786 25.23031,5.8286712 V 5.4525948 q 0,-1.9699239 -0.68052,-2.8116187 -0.680519,-0.8596032 -2.131099,-0.8596032 z"
     id="text4"
     style="font-size:17.9084px;stroke-width:1.49236"
     transform="scale(0.99923658,1.000764)"
     aria-label="g" />
</svg>
